<?xml version="1.0" encoding="UTF-8" standalone="no"?>
<!-- Created with Inkscape (http://www.inkscape.org/) -->

<svg
   xmlns:dc="http://purl.org/dc/elements/1.1/"
   xmlns:cc="http://creativecommons.org/ns#"
   xmlns:rdf="http://www.w3.org/1999/02/22-rdf-syntax-ns#"
   xmlns:svg="http://www.w3.org/2000/svg"
   xmlns="http://www.w3.org/2000/svg"
   xmlns:sodipodi="http://sodipodi.sourceforge.net/DTD/sodipodi-0.dtd"
   xmlns:inkscape="http://www.inkscape.org/namespaces/inkscape"
   width="256px"
   height="256px"
   id="svg3020"
   version="1.1"
   inkscape:version="0.48.5 r10040"
   sodipodi:docname="floppydisk.svg">
  <defs
     id="defs3022" />
  <sodipodi:namedview
     id="base"
     pagecolor="#ffffff"
     bordercolor="#666666"
     borderopacity="1.0"
     inkscape:pageopacity="0.0"
     inkscape:pageshadow="2"
     inkscape:zoom="2.75"
     inkscape:cx="157.5321"
     inkscape:cy="142.26254"
     inkscape:current-layer="layer2"
     showgrid="true"
     inkscape:document-units="px"
     inkscape:grid-bbox="true"
     inkscape:window-width="1081"
     inkscape:window-height="849"
     inkscape:window-x="1973"
     inkscape:window-y="160"
     inkscape:window-maximized="0">
    <inkscape:grid
       type="xygrid"
       id="grid3101" />
  </sodipodi:namedview>
  <metadata
     id="metadata3025">
    <rdf:RDF>
      <cc:Work
         rdf:about="">
        <dc:format>image/svg+xml</dc:format>
        <dc:type
           rdf:resource="http://purl.org/dc/dcmitype/StillImage" />
        <dc:title />
      </cc:Work>
    </rdf:RDF>
  </metadata>
  <g
     id="layer1"
     inkscape:label="lines"
     inkscape:groupmode="layer"
     style="display:inline">
    <path
       style="fill:none;stroke:#000000;stroke-width:8px;stroke-linecap:butt;stroke-linejoin:miter;stroke-opacity:1"
       d="m 33.75,229.75 0,-202.5 45,0 120,0 22.5,22.5 0,180 z"
       id="path3028"
       inkscape:connector-curvature="0"
       sodipodi:nodetypes="ccccccc" />
    <path
       style="fill:none;stroke:#000000;stroke-width:8px;stroke-linecap:butt;stroke-linejoin:miter;stroke-opacity:1"
       d="m 78.75,27.25 0,67.5 97.5,0 0,-67.5 z"
       id="path3028-2"
       inkscape:connector-curvature="0"
       sodipodi:nodetypes="ccccc" />
    <path
       style="fill:none;stroke:#000000;stroke-width:16px;stroke-linecap:butt;stroke-linejoin:miter;stroke-opacity:1"
       d="m 131.25,34.75 0,52.5 15,0 0,-52.5 z"
       id="path3056"
       inkscape:connector-curvature="0"
       sodipodi:nodetypes="ccccc" />
    <path
       style="fill:none;stroke:#000000;stroke-width:8px;stroke-linecap:butt;stroke-linejoin:miter;stroke-opacity:1"
       d="m 78.75,162.25 97.5,0"
       id="path3229"
       inkscape:connector-curvature="0"
       sodipodi:nodetypes="cc" />
    <path
       style="fill:none;stroke:#000000;stroke-width:8px;stroke-linecap:butt;stroke-linejoin:miter;stroke-opacity:1"
       d="m 78.75,192.25 97.5,0"
       id="path3231"
       inkscape:connector-curvature="0"
       sodipodi:nodetypes="cc" />
  </g>
  <g
     inkscape:groupmode="layer"
     id="layer2"
     inkscape:label="colors"
     style="display:inline">
    <path
       style="fill:#80b3ff"
       d="m 37.823009,128.42837 0,-97.090907 18.363636,0 18.363637,0 0,33.818182 0,33.818181 52.909088,0 52.90909,0 0,-33.818181 0,-33.818182 8.27517,0 8.27516,0 10.08847,10.093302 10.08848,10.093302 0,86.997603 0,86.99761 -89.63637,0 -89.636361,0 0,-97.09091 z m 138.545451,63.81818 0,-4.18181 -48.90909,0 -48.909088,0 0,4.18181 0,4.18182 48.909088,0 48.90909,0 0,-4.18182 z m 0,-30 0,-4 -48.90909,0 -48.909088,0 0,4 0,4 48.909088,0 48.90909,0 0,-4 z"
       id="path3307"
       inkscape:connector-curvature="0" />
  </g>
  <g
     inkscape:groupmode="layer"
     id="layer3"
     inkscape:label="monochrome"
     style="display:inline" />
</svg>
