<?xml version="1.0" encoding="UTF-8" standalone="no"?>
<!-- Created with Inkscape (http://www.inkscape.org/) -->

<svg
   xmlns:dc="http://purl.org/dc/elements/1.1/"
   xmlns:cc="http://creativecommons.org/ns#"
   xmlns:rdf="http://www.w3.org/1999/02/22-rdf-syntax-ns#"
   xmlns:svg="http://www.w3.org/2000/svg"
   xmlns="http://www.w3.org/2000/svg"
   xmlns:sodipodi="http://sodipodi.sourceforge.net/DTD/sodipodi-0.dtd"
   xmlns:inkscape="http://www.inkscape.org/namespaces/inkscape"
   width="256px"
   height="256px"
   id="svg3020"
   version="1.1"
   inkscape:version="0.48.5 r10040"
   sodipodi:docname="statistics.svg">
  <defs
     id="defs3022" />
  <sodipodi:namedview
     id="base"
     pagecolor="#ffffff"
     bordercolor="#666666"
     borderopacity="1.0"
     inkscape:pageopacity="0.0"
     inkscape:pageshadow="2"
     inkscape:zoom="2.75"
     inkscape:cx="109.73707"
     inkscape:cy="116.09648"
     inkscape:current-layer="layer2"
     showgrid="true"
     inkscape:document-units="px"
     inkscape:grid-bbox="true"
     inkscape:window-width="1081"
     inkscape:window-height="849"
     inkscape:window-x="1973"
     inkscape:window-y="160"
     inkscape:window-maximized="0">
    <inkscape:grid
       type="xygrid"
       id="grid3101" />
  </sodipodi:namedview>
  <metadata
     id="metadata3025">
    <rdf:RDF>
      <cc:Work
         rdf:about="">
        <dc:format>image/svg+xml</dc:format>
        <dc:type
           rdf:resource="http://purl.org/dc/dcmitype/StillImage" />
        <dc:title />
      </cc:Work>
    </rdf:RDF>
  </metadata>
  <g
     id="layer1"
     inkscape:label="lines"
     inkscape:groupmode="layer"
     style="display:inline">
    <path
       style="fill:none;stroke:#000000;stroke-width:8px;stroke-linecap:butt;stroke-linejoin:miter;stroke-opacity:1"
       d="m 33.75,229.75 0,-202.5 L 220,26 l 1.25,203.75 z"
       id="path3028"
       inkscape:connector-curvature="0"
       sodipodi:nodetypes="ccccc" />
    <path
       style="fill:none;stroke:#000000;stroke-width:8px;stroke-linecap:butt;stroke-linejoin:miter;stroke-opacity:1"
       d="m 75,101 20,0 0,95 -20,0 z"
       id="path3313"
       inkscape:connector-curvature="0"
       sodipodi:nodetypes="ccccc" />
    <path
       style="fill:none;stroke:#000000;stroke-width:8px;stroke-linecap:butt;stroke-linejoin:miter;stroke-opacity:1"
       d="m 120,136 0,60 20,0 0,-60 z"
       id="path3315"
       inkscape:connector-curvature="0" />
    <path
       style="fill:none;stroke:#000000;stroke-width:8px;stroke-linecap:butt;stroke-linejoin:miter;stroke-opacity:1"
       d="m 165,66 0,130 20,0 0,-130 z"
       id="path3317"
       inkscape:connector-curvature="0" />
  </g>
  <g
     inkscape:groupmode="layer"
     id="layer2"
     inkscape:label="colors"
     style="display:inline">
    <path
       style="fill:#4d4d4d"
       d="m 79.151881,148.41261 0,-43.27273 5.818182,0 5.818182,0 0,43.27273 0,43.27273 -5.818182,0 -5.818182,0 0,-43.27273 z"
       id="path3048"
       inkscape:connector-curvature="0" />
    <path
       style="fill:#4d4d4d"
       d="m 124.24279,165.86716 0,-25.81819 5.81818,0 5.81818,0 0,25.81819 0,25.81818 -5.81818,0 -5.81818,0 0,-25.81818 z"
       id="path3050"
       inkscape:connector-curvature="0" />
    <path
       style="fill:#4d4d4d"
       d="m 169.3337,130.95807 0,-60.727277 5.81818,0 5.81818,0 0,60.727277 0,60.72727 -5.81818,0 -5.81818,0 0,-60.72727 z"
       id="path3052"
       inkscape:connector-curvature="0" />
    <path
       style="fill:#80b3ff"
       d="m 38.003231,128.41261 0,-97.090908 7.909091,0.0019 c 4.35,0.0011 44.293043,-0.255893 88.762318,-0.571014 44.46928,-0.31512 80.91873,-0.507446 80.99879,-0.427389 0.15916,0.159163 1.22923,156.407099 1.2352,180.360109 l 0.004,14.81818 -89.45454,0 -89.454549,0 0,-97.09091 z m 61.090909,20 0,-51.636363 -14.181818,0 -14.181818,0 0,51.636363 0,51.63636 14.181818,0 14.181818,0 0,-51.63636 z m 45.09091,17.45455 0,-34.18182 -14.18182,0 -14.18182,0 0,34.18182 0,34.18181 14.18182,0 14.18182,0 0,-34.18181 z m 45.09091,-34.90909 0,-69.090914 -14.18182,0 -14.18182,0 0,69.090914 0,69.0909 14.18182,0 14.18182,0 0,-69.0909 z"
       id="path3056"
       inkscape:connector-curvature="0" />
  </g>
  <g
     inkscape:groupmode="layer"
     id="layer3"
     inkscape:label="monochrome"
     style="display:inline" />
</svg>
